<?xml version="1.0" encoding="utf-8"?>
<!-- Generator: Adobe Illustrator 19.1.0, SVG Export Plug-In . SVG Version: 6.00 Build 0)  -->
<!DOCTYPE svg PUBLIC "-//W3C//DTD SVG 1.1//EN" "http://www.w3.org/Graphics/SVG/1.1/DTD/svg11.dtd">
<svg version="1.1" id="Layer_1" xmlns="http://www.w3.org/2000/svg" xmlns:xlink="http://www.w3.org/1999/xlink" x="0px" y="0px"
	 viewBox="0 0 114 40.2" enable-background="new 0 0 114 40.2" xml:space="preserve">
<g display="none">
	<polygon display="inline" fill="none" stroke="#F2F2F2" stroke-width="2" stroke-miterlimit="10" points="1,11.4 11,2.3 11,8.5 
		24.3,4 20.3,11.3 113,11.3 113,27.3 19.1,27.3 25,34.8 11.9,30.2 13.7,37.8 1,28.8 	"/>
	<polygon display="inline" fill="#F2F2F2" points="2,15.6 6,11.3 6,14.2 12.3,12 10.5,15.3 113,15.3 113,23.3 9.9,23.3 12.7,26.8 
		6.5,24.5 7.7,28.1 2,23.8 	"/>
</g>
<g>
	<rect x="20.5" y="28.5" fill="none" stroke="#F2F2F2" stroke-width="2" stroke-miterlimit="10" width="18.7" height="9.3"/>
	<rect x="20.5" y="2.3" fill="none" stroke="#F2F2F2" stroke-width="2" stroke-miterlimit="10" width="18.7" height="9.3"/>
	<path fill="none" stroke="#F2F2F2" stroke-width="2" stroke-miterlimit="10" d="M19.6,28.4c-0.2,0-0.4,0-0.7,0
		c-4.6,0-8.4-3.8-8.4-8.4c0-4.6,3.8-8.4,8.4-8.4c0.2,0,0.4,0,0.7,0V2.3c-0.2,0-0.4,0-0.7,0c-9.8,0-17.7,7.9-17.7,17.7
		S9.2,37.8,19,37.8c0.2,0,0.4,0,0.7,0V28.4z"/>
	<polygon fill="none" stroke="#F2F2F2" stroke-width="2" stroke-miterlimit="10" points="41.7,3.9 51,10.8 51,5.5 57,10.8 57,6.1 
		66,12.6 66,8.3 74,14.9 74,8.3 83,14.9 83,9.5 91,14.9 91,9.5 99.1,14.9 99.5,8.9 107.9,14.9 97.9,2.4 94.7,6.7 87.1,3.9 87.4,8.3 
		80.4,3.9 78.7,8.3 72.6,3.9 71.1,8.5 64.1,3.9 62.4,6.7 56.2,1.8 54.8,5.5 48.7,1.8 47.5,5 	"/>
	<polygon fill="none" stroke="#F2F2F2" stroke-width="2" stroke-miterlimit="10" points="41.7,35.9 51,29 51,34.2 57,29 57,33.6 
		66,27.1 66,31.4 74,24.9 74,31.4 83,24.9 83,30.3 91,24.9 91,30.3 99.1,24.9 99.5,30.8 107.9,24.9 97.9,37.4 94.7,33.1 87.1,35.9 
		87.4,31.4 80.4,35.9 78.7,31.4 72.6,35.9 71.1,31.2 64.1,35.9 62.4,33.1 56.2,37.9 54.8,34.2 48.7,37.9 47.5,34.7 	"/>
</g>
</svg>
