<?xml version="1.0" encoding="utf-8"?>
<!-- Generator: Adobe Illustrator 19.1.0, SVG Export Plug-In . SVG Version: 6.00 Build 0)  -->
<!DOCTYPE svg PUBLIC "-//W3C//DTD SVG 1.1//EN" "http://www.w3.org/Graphics/SVG/1.1/DTD/svg11.dtd">
<svg version="1.1" id="Layer_1" xmlns="http://www.w3.org/2000/svg" xmlns:xlink="http://www.w3.org/1999/xlink" x="0px" y="0px"
	 viewBox="0 0 22.6 21.6" enable-background="new 0 0 22.6 21.6" xml:space="preserve">
<g>
	<path fill="#FFFFFF" d="M18,15h-6c0,0-8,2-9,4s1-2,1-2l-4-6.7c0,0,5.3-8.6,12.9-5.7L18,15z"/>
	<path fill="#FF00FF" d="M6,10h5.8l3.2,9h5c1.6-1.7,2.6-3.9,2.6-6.4c0-5.1-4.1-9.2-9.2-9.2C9.7,3.4,6.5,5.6,5,8.8L6,10z"/>
	<circle id="XMLID_821_" fill="#FFFFFF" cx="13.6" cy="7.5" r="2.9"/>
	<path fill="#828282" d="M11,10c0,0-7.3-0.5-6.7,4.2L5,19l9-4L11,10z"/>
	<path fill="#565656" d="M11,14.7c0,0-7.3-0.3-6.7,2L5,19l9-1.9L11,14.7z"/>
	<path fill="#B000B5" d="M14.6,15.4c1.4,1.7,3.9,2.5,6.1,1.9c-1,3.2-5,5.1-8.1,3.8c-0.1-1.4,0.3-2.9,1-4.1"/>
	<polygon fill="#F7931E" points="9,3.5 5,0 5,5 0,4.6 0,10 	"/>
	<polygon fill="#FFBD48" points="8.9,5.7 5,3.5 5,6.7 0,6.5 0,10 	"/>
</g>
</svg>
