<?xml version="1.0" encoding="utf-8"?>
<!-- Generator: Adobe Illustrator 15.1.0, SVG Export Plug-In . SVG Version: 6.00 Build 0)  -->
<!DOCTYPE svg PUBLIC "-//W3C//DTD SVG 1.1//EN" "http://www.w3.org/Graphics/SVG/1.1/DTD/svg11.dtd">
<svg version="1.1" id="Layer_1" xmlns="http://www.w3.org/2000/svg" xmlns:xlink="http://www.w3.org/1999/xlink" x="0px" y="0px"
	 width="512px" height="512px" viewBox="0 0 512 512" enable-background="new 0 0 512 512" xml:space="preserve">
<g opacity="0.5">
	<circle fill="#FFFFFF" cx="255.59" cy="256.307" r="24.167"/>
</g>
<g>
	<rect x="254.976" fill="#FFFFFF" width="1.024" height="512"/>
</g>
<g>
	<rect y="256" fill="#FFFFFF" width="512" height="1.023"/>
</g>
<g>
	<g>
		<polygon fill="#FFFFFF" points="281.6,238.592 279.552,238.592 279.552,231.424 271.359,231.424 271.359,229.376 281.6,229.376 		
			"/>
	</g>
	<g>
		<polygon fill="#FFFFFF" points="231.424,238.592 229.376,238.592 229.376,229.376 239.616,229.376 239.616,231.424 
			231.424,231.424 		"/>
	</g>
	<g>
		<polygon fill="#FFFFFF" points="239.616,282.624 229.376,282.624 229.376,273.408 231.424,273.408 231.424,280.576 
			239.616,280.576 		"/>
	</g>
	<g>
		<polygon fill="#FFFFFF" points="281.6,282.624 272.384,282.624 272.384,280.576 279.552,280.576 279.552,272.384 281.6,272.384 		
			"/>
	</g>
</g>
<g>
	<circle fill="#FFFFFF" cx="255.59" cy="256.307" r="16.999"/>
</g>
</svg>
