<?xml version="1.0" encoding="utf-8"?>
<!-- Generator: Adobe Illustrator 19.1.0, SVG Export Plug-In . SVG Version: 6.00 Build 0)  -->
<!DOCTYPE svg PUBLIC "-//W3C//DTD SVG 1.1//EN" "http://www.w3.org/Graphics/SVG/1.1/DTD/svg11.dtd">
<svg version="1.1" id="Layer_1" xmlns="http://www.w3.org/2000/svg" xmlns:xlink="http://www.w3.org/1999/xlink" x="0px" y="0px"
	 viewBox="0 0 83 81.6" enable-background="new 0 0 83 81.6" xml:space="preserve">
<g>
	<path id="XMLID_4_" fill="#CCCCCC" d="M51,18.1c0,0,16,6,16,23h16c0,0,0-32-24-37L51,18.1z"/>
	<path id="XMLID_24_" fill="#CCABCC" d="M78,37.4c-0.9-3.9-2.5-7.6-4.1-11.3c-2.5-5.9-5.3-10.9-10.2-14.8c-2.3-1.4-4.7-2.1-6.9-3.5
		L51,18.1c0,0,16,6,16,23h11.8C78.6,39.9,78.3,38.7,78,37.4z"/>
	<path id="XMLID_6_" fill="#CCCCCC" d="M65.2,49.6c0,0-6.2,16-23.2,16v16c0,0,32.1,0,37.1-24L65.2,49.6z"/>
	<path id="XMLID_22_" fill="#CCABCC" d="M74.4,54.8l-9.1-5.3c0,0-6.2,16-23.2,16v6.6C55.7,73.9,65.8,64.5,74.4,54.8z"/>
	<path id="XMLID_8_" fill="#CCCCCC" d="M32,63.8c0,0-16-5.8-16-22.8H0C0,41.1,0,73,24,78L32,63.8z"/>
	<path id="XMLID_20_" fill="#CCABCC" d="M14.5,60.4c3.2,4.9,7.9,8.5,13,11.4l4.5-7.9c0,0-16-5.8-16-22.8H9.4
		C9.6,47.9,10.8,54.6,14.5,60.4z"/>
	<path id="XMLID_7_" fill="#CCCCCC" d="M17.7,32.1c0,0,6.3-16,23.3-16v-16c0,0-32.1,0-37.1,24L17.7,32.1z"/>
	<path id="XMLID_23_" fill="#CCABCC" d="M24.7,10.9c-4.4,2.3-7.8,5.2-10.6,8.6c-1.5,2.6-2.4,5.5-3.5,8.3l7.2,4.2c0,0,6.2-16,23.2-16
		V6.2C35.3,6.8,29.8,8.3,24.7,10.9z"/>
	<path id="XMLID_5_" fill="#B000B5" d="M35.7,55.7c-1.3,0-3.5-0.5-4.3,0.7c-0.6,0.8-1.1,2.8-0.3,3.7c-0.2,0.3-1,0.6-1.3,0.8
		c-0.3,0.2-0.6,0.3-1,0.2c-0.5-0.2-0.7-0.7-0.9-1.1c-0.2-0.4-0.1-0.7-0.8-0.6c-0.3,0.1-0.4,0.3-0.6,0.4c-0.4,0.4-0.7,0.9-1,1.3
		c-0.7,1.1-0.4,2.6-0.4,3.9c0,0.8,0,1.5,0,2.3c0,1,0.6,1.9,0.3,2.9c-0.3,1.2-1.9,2.6-3,1.3c-0.5-0.6,0-1.2-0.4-1.8
		c-0.4-0.6-1.2-0.5-1.8-0.2c-0.7,0.3-0.9,1-1.4,1.5c-0.5,0.5-1.1,0.8-1.5,1.3c-0.5,0.5-1.2,0.8-1.6,1.3c-0.2,0.2-0.2,0.8-0.4,0.9
		c-0.3,0.3-0.8,0.3-1,0.7c-1-0.8-1-2.6-2.2-3.4c-1-0.7-1.9-1.2-2.8-2.2c-0.5-0.5-2.7-3-1.1-3.1c1-0.1,1.9,1.2,2.5,1.8
		c0.7,0.8,2.1,0.5,3.1,0.5c0.8,0,1.3,0.1,1.9-0.5c0.8-0.8,1.7-1.5,2.5-2.2c0.3-0.3,0.4-0.4,0.9-0.4c0.9,0,1,0.7,1.7,1
		c1.5,0.6,1.6-2.2,1.1-3c-0.4-0.6-0.8-0.8-0.9-1.6c-0.1-1.1,0.4-1.8,1.2-2.5c0.6-0.6,1.4-0.6,2.2-0.8c0.4-0.1,0.5,0,0.9-0.3
		c0.6-0.4,0.3-0.9,0.7-1.4c0.6-0.7,1.6,0.1,2.2-0.5c0.1-0.1,0.5-1.2,0.6-1.3c0-0.5-0.5-0.9-0.8-1.3c-0.7-1-1.6-1.7-1.1-3.1
		c0.2-0.7,0.6-1.2,0.6-1.9c0-0.4,0-1.4,0.6-1.4c0.1,1,1,1.2,1.7,1.8c0.7,0.6,1.4,1.3,2,2c0.8,0.9,1.5,1.8,2.4,2.7
		c0.4,0.4,1.2,0.5,1,1.2"/>
	<path id="XMLID_9_" fill="#B000B5" d="M53.7,52.1c2,0,4.1-0.2,6-0.1c1.6,0.1,2.4,1.5,3.6,2.4c0.3,0.2,0.9,0.3,1.2,0.6
		c0.4,0.4,0.7,2.1,0.5,2.6c-0.2,0.7-1.1,0.9-1.3,1.5c-0.2,0.5-0.6,1.7-0.3,2.2c0.2,0.3,0.3,0.3,0.6,0.5c0.4,0.2,0.7,0.5,1,0.7
		c0.5,0.3,1.4,0.9,2,0.6c0-0.3-0.3-0.4-0.5-0.7c-0.3-0.4-0.4-0.8-0.4-1.3c-0.1-0.9,0.4-1.4,0.9-2.1c0.3-0.5,0.1-0.4,0.7-0.7
		c0.4-0.2,0.5-0.3,1.1-0.3c0.9,0,1.2,0.2,2,0.5c1,0.4,1.3-0.3,1.8-1.3c0.2-0.4,0.2-0.9,0.6-1.2c0.4-0.2,0.9,0,1.3-0.1
		c0.4-0.1,0.5-0.4,1-0.4c0.3,0,1,0.3,1.3,0.4c0.3,0.1,0.8,0.5,1,0.7c0.3,0.2-0.1,0.7,0.6,0.6c-0.7-0.9-1-2.2-1.9-2.8
		c-0.4-0.3-0.7-0.5-1.1-0.8c-0.4-0.4-0.6-0.3-1.2-0.5C73,53,73,52.3,73,51.2c0-1.1-0.6-2-0.2-3.2c0.1-0.4,0.4-0.6,0.6-1
		c0.2-0.4,0.4-0.9,0.7-1.3c0.6-0.8,1.2-1.7,1.9-2.4c0.2-0.2,0.5-0.3,0.7-0.5c0.2-0.2,0.2-0.6,0.4-0.8c0.3-0.5,0.8-1,1.3-1.3
		c0.3-0.2,0.7-0.6,1-0.8c0.5-0.3,1.1,0,1.7-0.3c-0.4-0.6-2-0.9-2.8-1.2c-0.7-0.2-1.5-0.6-2.1-0.7c-0.5-0.1-1.4,0.2-1.1-0.6
		c0.2-0.5,0.9-0.6,1.2-0.8c0.9-0.7,1.3-1.7,1.4-2.8c0.2-1.7-0.7-2.3-2.3-2.5c-0.1,0.3-0.2,0.9,0,1.2c0.1,0.2,0.4,0.3,0.5,0.5
		c0.3,0.5,0.1,1.9-0.2,2.4c-0.4,0.6-1.1,0.8-1.8,0.9c-0.7,0.1-1.5,0.5-1.9,1.1c0.3,0.8,0.9,1.6,1.9,1.6c0.4,1.1,0,2.7,0.1,3.9
		c-0.3-0.3-0.6-0.7-0.9-0.9c-0.5-0.4-0.7-0.2-1.3-0.3c-0.7-0.1-1.1-0.3-1.9-0.3c-0.6,0-1.2,0-1.8,0c0.7,0.7,0.4,1.6,0.8,2.5
		c0.4,0.9,0.4,1.5,0.4,2.5c0,0.9,0.2,2-0.1,2.8c-0.5,1.2-1.4,1.2-2.5,1.2c-0.8,0-1.5,0-2.1-0.5c-1-0.8-0.4-2.2-2.1-1.8
		c-0.4,0.1-0.6,0.3-1.2,0.3c-0.7,0-1.3,0-1.9-0.2c-0.3-0.1-0.8-0.2-1-0.3c-0.4-0.3-0.2-0.2-0.4-0.6c-0.2-0.4-0.2-1.2-0.9-0.8
		c-0.2,0.6,0.1,1.1-0.4,1.6c-0.2,0.2-0.6,0.6-0.9,0.7c-0.2,0.1-0.5,0.2-0.6,0.3C55,48.9,55.1,49,55,49.2c-0.2,0.4-0.5,1-0.3,1.5"/>
	<path id="XMLID_10_" fill="#B000B5" d="M27,45.7c0-0.1,0-0.2-0.1-0.3c-0.9-0.2-1.3-1-2.1-1.1c-1.2-0.2-1.7,0.2-2.7,0.9
		c-0.8,0.5-1.7,0.9-2.4,1.6c-0.2,0.2-0.6,0.5-0.8,0.8c-0.3,0.3-0.3,0.7-0.5,1c-0.3,0.4-1.1,1-1.5,1.1c-0.8,0.2-1.3-0.4-1.9-0.9
		c-1.3-1.3-2.7-2.2-4.4-2.7c-1-0.3-1.9-0.7-2.9-0.4c-1,0.3-2.3,0.9-2.5,2c-0.2,0.8,0.2,1.7-0.1,2.5c-0.2,0.6-0.9,1.2-1.3,1.7
		c-0.3,0.3-0.9,1-1.4,1.3c-1.2,0.7-1.3-0.4-1.3-1.3c0-0.8,0-1.7,0-2.5c0-0.3-0.1-0.9,0-1.2C1.6,47.4,1.7,48,2.1,48
		c1,0.2,1.3-0.5,1.5-1.3c0.3-1,0-1.4,0.7-2.1C4.5,44.4,4.7,44,5,43.9c0.3-0.2,1.1,0,1.3-0.2c0.3-0.3,0-0.9,0-1.3
		c0.1-0.6,0.6-1,0.3-1.6c-0.6,0-1.2-0.5-1.3-1c-0.1-0.3,0-0.6,0-0.8c-0.1-0.3-0.4-0.3-0.3-0.7c0.2-0.4,1.3-0.1,1.7-0.2
		c0.6-0.1,1-0.5,1.5-0.9c1-0.9-0.1-2.4,0.8-3.2c1-1,1.6,0.7,1.8,1.3c0.3,0.7,0.4,1.4,0.1,2.2c-0.2,0.6-0.8,0.9-1.2,1.4
		c-0.5,0.7-1.3,1.7-1,2.6c0.2,0.8,0.6,0.4,1.3,0.5c0.8,0.1,1.5,0.9,2.1,1.3c0.4,0.3,0.8,0.5,1.2,0.7c0.4,0.3,0.8,0.8,1.3,1
		c0.5,0.3,1.4,0.6,2,0.6c0.2-0.5-0.1-1.1,0.1-1.6c0.3-0.7,1-0.7,1.6-0.8c0.5-0.1,1-0.4,1.4-0.5c0.6-0.2,1.5,0.1,2.1-0.1
		c0.4-0.2,0.7-0.7,1.1-1c0.5-0.3,0.7-0.1,0.8-0.7c0.1-0.3-0.2-0.8,0-1.1c0.2-0.2,0.8-0.5,1.1-0.5c0.6-0.1,0.9,0.5,1.5,0.3"/>
	<path id="XMLID_11_" fill="#B000B5" d="M41.7,57.1c0.7-0.1,1.7,0.4,2.3,0.6c1.1,0.4,2.3,1,3.4,1.5c0.6,0.3,1,0.7,1.5,1
		c0.5,0.3,1,0.4,1.4,0.8c1.6,1.4,0.3,2.9-0.8,4c-0.6,0.6-1,0.7-1.8,0.9c-1,0.3-2.6-0.5-3,0.7c-0.3,0.9,0,1.3,0.7,1.7
		c0.8,0.4,1.1,0.3,1.7-0.4c0.7-0.8,1.1-0.7,2.2-0.7c0.7,0,1.7-0.3,2,0.7c0.3,1-0.2,2.2-0.3,3.2c-0.1,0.5,0,0.7,0.1,1.2
		c0.1,0.5,0.2,1,0.2,1.6c0,0.8-0.5,1.1-0.9,1.8c-0.4,0.8-0.7,2.1-0.8,2.9c-0.1,1.2-0.1,2.1,1.3,1.6c0.7-0.2,1.2-1,1.3-1.6
		c0.1-0.4,0.1-0.7,0.3-1.2c0.2-0.4,0.4-0.6,0.5-1c0.1-0.4,0.1-0.7,0.5-0.9c0.6-0.3,0.9,0.2,1.2,0.5c0.8,0.7,0.7,1.1,1.1,2.1
		c0.4,0.9,1.1,0.7,2,0.7c1.6,0,2.5-1,3.7-1.9c0.6-0.4,1-1.1,1.6-1.6c0.7-0.6,1.4-1.2,2.1-1.8c0.5-0.4,1.3-0.5,1.6-1.1
		c0.3-0.6,0.1-1.9,0.1-2.6c0-0.4-0.1-1.9-0.8-1.7c-0.4,0.1-0.1,0.6-0.3,0.9c-0.2,0.4-0.8,0.7-1,1.2c-0.3,0.6-0.4,1-0.8,1.6
		c-0.3,0.4-0.5,1.1-1,1.3c-0.2,0.1-0.4-0.1-0.6,0c-0.2,0.1-0.4,0.2-0.6,0.3c-1.1,0.3-2.3,0.6-3.3,1.1c-0.9,0.4-1.4,0.6-1.8-0.5
		c-0.2-0.4-0.6-1-0.7-1.5c-0.1-0.4,0-1.1,0-1.5c0-1-0.9-1.7-1.3-2.6c-0.9-1.7-1.6-4.6-0.7-6.5c0.3-0.5,0.3-0.5,0.7-0.8
		c0.3-0.2,0.6-0.2,0.7-0.6c0.2-0.9-1.8-2.1-2.4-2.6c-1.4-1.1-3-3.6-1.4-5.1c-0.9-0.8-3.7,2.3-4.8,2.7c-1.9,0.5-3.8,1.5-5.7,1.7"/>
	<path id="XMLID_12_" fill="#B000B5" d="M33.3,26.4c0.2-1.5-0.9-3-1.3-4.3c-0.2-0.7,0.1-1.3-0.1-2c-0.3-1.6-0.8-2.5-2.2-3.3
		c-0.7-0.4-1-0.5-1.8-0.7c-0.3-0.1-0.3-0.2-0.7-0.3c-0.5-0.1-0.7,0.1-1.2-0.2c-1.3-0.7-2.4-1.6-3.4-2.7c-0.5-0.5-1.5-2.5-2.3-2.5
		c-0.1-0.7-2.8-6-0.1-5.6c0.2,0.6-0.2,1.5,0,2c0.2,0.4,0.7,0.5,1,1c0.3,0.5,0.3,1,0.6,1.4c0.3,0.4,0.8,0.9,1.2,1.2
		c0.4,0.3,1.1,0.4,1.6,0.4c0.8,0,1.3-0.6,1.9-1.1c0.4-0.3,0.3-0.4,0.8-0.6C27.5,9,27.9,8.9,28,8.8c0.3-0.2,0.5-0.1,0.4-0.7
		c-0.1-0.4-0.4-0.3-0.6-0.6c-0.2-0.3-0.2-1.6,0-1.9c0.1-0.2,1.1-0.8,1.3-0.8c0.4,0.1,0.1,0.4,0.5,0.7c0.3,0.2,1,0.1,1.3,0.1
		c1,0,1.2-0.2,1.5-1.1c0.3-0.8,0.5-1.5,0.7-2.3c0.1-0.2,0.3-0.3,0.3-0.5c0.1-0.3-0.1-0.7,0-1c0.2-0.7,0.8-0.5,1.5-0.5
		c0.7,0,1.8-0.2,2.5,0.1c0.1,0.4-0.4,0.6-0.6,0.9c-0.1,0.3-0.2,0.8-0.3,1.1c-0.2,0.7-0.2,0.9-0.8,1.4c-0.6,0.6-1.1,1-1.3,1.9
		c-0.1,0.8,0,1.3-0.4,2c-0.5,0.8-1.3,2.1-2.1,2.8c-0.3,0.3-1.3,0.5-1.3,1.1c0,0.9,1.8,1.3,2.4,1.7c0.2,0.2,0.4,0.5,0.6,0.6
		c0.3,0.2,1,0.1,1.3,0.1c0.5,0,1.8-0.3,2,0.4c0.2,0.5-0.4,0.9-0.6,1.2c-0.4,0.7-0.7,1.2-0.7,2c0,0.7-0.2,1.7,0,2.4
		c0.2,0.9,0.8,1.6,0.6,2.6c-0.1,0.3-0.4,0.4-0.3,0.9c0.1,0.4,0.1,0.4,0.3,0.7c0.5,0.6,0.9,0.7,1.7,0.9c-0.1,0.4-1.3,1-1.6,1.3
		c-0.4,0.3-1.1,0.7-1.6,0.7c0,0.3-0.1,0.7-0.4,0.9"/>
	<path id="XMLID_13_" fill="#B000B5" d="M56.2,11.1c0.4,0.5,0.6,0.6,1.1,1c0.5,0.3,0.7,0.8,1.2,1.2c0.7,0.7,2.1,0.4,2.9,0
		c0.5-0.2,0.4-0.5,0.9-0.2c0.3,0.1,0.7,0.7,0.9,0.9c0.9,1.2,1.3,2.9,2,4.2c-0.5,0.3-2.6,1-1.9,1.8c-0.5-0.5-1-1-1.4-1.6
		c-0.1-0.3-0.2-0.9-0.4-1.2c-0.3-0.4-0.6-0.2-1-0.4c-0.3-0.1-0.8-0.5-1-0.7c-0.2-0.1-0.4-0.3-0.5-0.5c-0.1-0.1-0.2-0.7-0.3-0.8
		c-0.5-0.3-1,0.4-1.2,0.8c-0.4,1,0.1,0.8,0.8,1.2c0.4,0.3,0.7,0.5,0.9,1c0.7,1.2,0.4,2.6,0.7,4c0.2,0.7,0.7,1.6-0.1,2.4
		c-0.8,0.8-1.1-0.2-1.7-0.5c-1.3-0.6-2.9,0.6-3,1.8c-0.2,1.4,0.2,2.9,0,4.3c-0.2,1.2-0.5,0.6-1.1-0.1c-0.5-0.7-1.5-1-1.5-2
		c-0.8-0.2-1.6,0-2.4,0c-0.5-1.7,0.5-4.7,2.2-5.7c0.5-0.3,1-0.2,1.5-0.5c0.4-0.3,0.7-0.6,0.9-1c0.4-0.7,0.7-2.1,0.7-2.9
		c0-0.2,0.1-1.6,0-1.9c-0.2-0.3-0.3-0.1-0.5-0.3c-0.3-0.3-0.8-0.6-1-0.9c-0.4-0.5-0.3-1-0.3-1.7c0-1.6-1.5-2.3-2.9-2.7
		c-0.7-0.2-1.2-0.4-2-0.4c-1,0-1.7,0.4-2.6,0.6c-0.6,0.2-1.3,0.2-1.8,0.5c-0.6,0.3-1.2,0.8-1.9,1.1c-0.5,0.2-0.9,0.3-1.3,0.7
		c-0.3,0.3-0.9,1.3-1.5,1c-0.3-0.7-0.1-1.7-0.2-2.5c-0.1-0.2-0.1-0.9-0.2-1.1c-0.2-0.3-0.5-0.3-0.7-0.7c-0.2-0.7-0.1-1.6,0.7-1.5
		C40,7.9,40.6,8.8,41.2,9c1.4,0.6,2.9,0.8,4.3,0.3c0.5-0.2,1-0.5,1.5-0.6c0.7-0.2,1.5,0.1,2.2-0.1c0.4-0.1,0.7-0.4,1.1-0.5
		c0.6-0.2,1.1-0.1,1.7-0.2C52.6,7.6,53.3,7.3,54,7c0.5-0.2,1-0.5,1.5-0.6C57,6,56.3,7.3,57.2,7.8c0.3,0.2,0.9,0,1.3,0.1
		c0.7,0.1,1.4,0.4,2.1,0.3c0.8-0.1,0.9-0.7,1.8-0.7c0.3,0,0.8,0.1,1.1,0c0.4-0.1,0.3-0.3,0.8-0.3c0.3,0,1.1,0.5,1.4,0.7
		c0.5,0.2,0.9,0.5,1.3,0.7c-1-0.1-2,0.1-2.9,0.6c-0.1,0.1-0.2,0.3-0.3,0.4c-0.3,0.1-0.6,0.1-0.9,0.2c-0.6,0.2-1.2,0.4-1.8,0.5
		c-0.9,0.2-1.1,0.4-1.8,1.2c-0.4,0.5-0.7,1-1.4,1c0,0-1-0.3-1.1-0.4c-0.3-0.2-0.8-0.6-0.8-1"/>
	<path id="XMLID_14_" fill="#B000B5" d="M7,30.1c-0.7-0.3-1.4-0.9-2.2-1c-0.6-0.1-1.7-0.2-2,0.4c-0.5,0.8-0.2,2.9,0.8,3.2
		c1,0.4,3.1,0,3.8-0.8c0.4-0.5,0.5-1.1,0.3-1.7c-0.2-0.8-0.6-0.8-1.3-0.8"/>
	<path id="XMLID_15_" fill="#B000B5" d="M23.2,10.8c-1,0-2,0.2-2.9,0.3c-0.9,0-1.7,0-2.6,0c-0.7,0-0.8,0-1.3-0.4
		c-0.2-0.2-0.4-0.2-0.7-0.3c-0.3-0.1-0.7-0.3-1-0.5c-0.6-0.3-1-1-1.8-0.8c-0.3,0.1-0.8,0.4-1.1,0.7c-0.3,0.3-0.7,0.7-1,1
		c-0.2,0.4-0.4,1.3,0,1.6c0.8-0.1,0.9-1.1,1.5-1.3c0.2-0.1,0.4,0,0.6,0c0.2,0,0.4-0.2,0.6-0.2c0.4-0.1,0.9,0,1.3,0
		c0.5,0.1,0.4,0.2,0.8,0.5c0.7,0.5,1.9,0.2,2.5,1c0.2,0.2,0.2,0.6,0.5,0.8c0.2,0.1,0.5,0,0.7,0c0.2,0,0.4,0.2,0.6,0.2
		c0.6,0.2,2.3,0.6,1.8,1.5c-0.4,0.7-1.4,0.8-1.9,1.6c-0.2,0.5-0.2,0.9-0.3,1.4c-0.1,0.4-0.2,0.5-0.2,1c0,0.5-0.1,0.7,0.3,1
		c0.3,0.3,1.4,0.9,1.7,0.8c0.1-0.8,0.6-1.5,0.9-2.3c0.2-0.6,0.1-0.9-0.1-1.5c-0.2-0.4-0.3-0.7,0-1.1c0.3-0.5,1-0.8,1.5-0.9
		c0.6,0,1.7,0.3,2.1-0.2"/>
	<path id="XMLID_16_" fill="#B000B5" d="M48,8.6c-0.5,0-1.2-0.1-1.8,0c-0.5,0.1-1,0.5-1.5,0.2c-0.1-0.1-0.2-0.3-0.4-0.4
		c-0.2-0.1-0.4-0.1-0.6-0.3c-0.4-0.3-0.5-0.8-0.7-1.2c-0.2-0.4-0.3-0.7-0.4-1.1c-0.2-0.5-0.2-1-0.4-1.5c-0.2-0.4-0.8-1.9-1.3-2
		c0,0.4-0.3,0.6-0.3,1.1c0,0.6-0.1,1-0.2,1.6c-0.2,1.1-0.3,2-0.3,3.1c0,0.4,0,0.8,0,1.2c0,0.2,0,0.4,0,0.6c0,0.3,0.2,0.3,0.2,0.5
		c0.1,0.5,0,2.3,0.5,2.4c0.1-0.6,0.8-1.7,1.5-1.8c0-0.1,0-0.1,0-0.2"/>
	<circle id="XMLID_1_" fill="#B000B5" cx="42" cy="41.1" r="17"/>
	<circle id="XMLID_3_" fill="#FF00FF" cx="44.5" cy="38.6" r="14.5"/>
	<circle id="XMLID_2_" fill="#FFFFFF" cx="46.5" cy="33.6" r="4.5"/>
</g>
</svg>
