<?xml version="1.0" encoding="utf-8"?>
<!-- Generator: Adobe Illustrator 19.1.0, SVG Export Plug-In . SVG Version: 6.00 Build 0)  -->
<!DOCTYPE svg PUBLIC "-//W3C//DTD SVG 1.1//EN" "http://www.w3.org/Graphics/SVG/1.1/DTD/svg11.dtd">
<svg version="1.1" id="Layer_1" xmlns="http://www.w3.org/2000/svg" xmlns:xlink="http://www.w3.org/1999/xlink" x="0px" y="0px"
	 viewBox="0 0 120.3 120.3" enable-background="new 0 0 120.3 120.3" xml:space="preserve">
<g>
	<g id="XMLID_167_">
		<circle id="XMLID_170_" fill="#B000B5" cx="59" cy="60.8" r="17"/>
		<circle id="XMLID_169_" fill="#FF00FF" cx="61.5" cy="58.3" r="14.5"/>
		<circle id="XMLID_168_" fill="#FFFFFF" cx="63.5" cy="53.3" r="4.5"/>
	</g>
	<g id="XMLID_178_">
		<path id="XMLID_166_" fill="#CCCCCC" d="M47,45.9c0,0-15.3,11.2-3.3,25.9L0,50.8L47,45.9z"/>
		<path id="XMLID_177_" fill="#E2E2E2" d="M39.4,57.4c1.5-7,7.6-11.5,7.6-11.5L0.5,50.3C12.1,52.6,27.8,54.8,39.4,57.4z"/>
		<path id="XMLID_173_" fill="#CCCCCC" d="M76.7,48.7c0,0,11.4,15.1-4.3,25.7l47.9-7.5L76.7,48.7z"/>
		<path id="XMLID_172_" fill="#E2E2E2" d="M80.7,61.9c0.6-7.1-4-13.2-4-13.2L120,66.3C108.2,65.1,92.5,62.8,80.7,61.9z"/>
		<path id="XMLID_171_" fill="#B000B5" d="M47,50.8c-0.8,0-1.7-0.1-2.5,0.2c-0.6,0.2-1,0.6-1.6,0.6c-1.1,0-2-0.9-2.9-1.4
			c-0.7-0.4-1.5-0.5-2.2-0.6c-0.5-0.1-1-0.3-1.5-0.4c-0.9-0.3-1.8-0.4-2.7-0.6c-1-0.3-1.8-0.7-2.8-0.7c-0.9,0-1.8,0-2.8,0
			c-0.8,0-1.5-0.7-2.2-0.5c-0.8,0.2-2.6,0.5-3.4,0.5c0.6,0.4,2.5,1.4,3.2,1.6c0.8,0.2,1.6,0.6,2.5,0.9c0.4,0.1,1,0.2,1.4,0.3
			c0.5,0.2,0.8,0.6,1.4,0.8c0.4,0.1,0.7,0.1,1.1,0.2c0.5,0.1,1.1,0.4,1.7,0.5c0.5,0.1,1-0.2,1.5,0c0.4,0.1,0.4,0.2,0.8,0.3
			c0.8,0,1.7,0,2.5,0c0.6,0,1.1,0,1.6,0.2c0.3,0.1,0.9,0.2,1.2,0.3c0.5,0.3,0.4,1,0.9,1.4c0.5,0.4,1.2,0.3,1.8,0.6"/>
		<path id="XMLID_174_" fill="#B000B5" d="M44,62.8c-0.7,0-1.5-0.1-2.2,0c-1,0.2-1.8,0.7-2.8,0.9C37.7,64,36.4,64,35,64
			c-2.5,0-5,0.1-7.5,0c0.8,0,1.2,0.7,1.8,1c0.4,0.2,0.7,0.2,1,0.3c0.1,0,0.2,0.2,0.4,0.2c0.3,0.1,0.6-0.1,0.8,0
			c0.2,0.1-1.5,1.4-1.3,1.4c0.3,0.1,2.5,0.1,2.8,0.2c0.6,0.3,1.1,0.4,1.6,0.6c1.1,0.4,1.9-1.8,3-1.8c0.7-0.1,1.2-0.2,1.9-0.2
			c0.5,0,1.1,0,1.6,0c0.4,0,0.6-0.1,0.9-0.2c0.7-0.2,1.5-0.1,2.2-0.1"/>
		<path id="XMLID_175_" fill="#B000B5" d="M74.8,53c0.1,0.5,1.5,1.3,2,1.5c0.8,0.4,1.9,0.4,2.8,0.6c1.3,0.3,2.5,0.4,3.8,0.4
			c2,0,4-0.3,6-0.3c0.4,0,0.6-0.2,0.9-0.2c0.3-0.1,0.7,0,1.1,0c0.4,0,0.8-0.1,1.2,0c0.4,0.1,0.6,0.4,1,0.5c0.6,0.1,1.1,0.3,1.6,0.5
			c0.5,0.1,0.9,0.2,1.4,0.3c0.4,0.1,0.7,0.2,1,0.4c0.3,0.1,0.6,0.4,0.8,0.3c-0.2,0.3-0.6,0.3-0.9,0.4c-0.5,0.2-1.1,0.4-1.6,0.5
			c-0.9,0.1-2-0.1-2.9-0.1c-2,0-3.9,0-5.9,0c-1.1,0-2.2,0.1-3.2,0.1c-1.2,0-2.3,0.3-3.4,0.6c-1,0.2-2.1-0.2-3,0.2
			c-0.2,0.1-0.3,0.2-0.5,0.3c-0.2,0.1-0.4,0.1-0.6,0.2c-0.2,0.2-0.8,0.7-0.9,0.9c0.1-1.3,0-2.6,0-3.9c0-0.7,0.4-2.3-0.5-2.5"/>
		<path id="XMLID_176_" fill="#B000B5" d="M74.8,64.3c0.6,0,1.3,1,1.7,1.4c0.5,0.3,0.9,0.7,1.4,1c0.7,0.4,1.7,0.7,2.5,1
			c1.1,0.3,2.3,0.6,3.3,0.8c0.3,0.1,0.7,0.2,1,0.3c0.4,0.1,0.7,0,1.1,0.1c1,0.2,1.9,0.3,2.9,0.5c0.6,0.1,1.2,0,1.7,0.2
			c0.3,0.1,0.5,0.2,0.8,0.2c0.4,0,0.6,0.1,1,0.2c0.4,0.1,0.8-0.1,1.1,0c0.3,0.1,0.4,0.2,0.7,0.3c0.4,0,0.8-0.1,1.2,0
			c-0.1,0.5-0.8,0.6-1.2,0.7c-0.6,0.2-1.1,0.6-1.6,0.8c-0.5,0.2-1,0.4-1.4,0.4c-0.2,0-0.4-0.1-0.6,0c-0.2,0-0.3,0.2-0.4,0.2
			c-0.8,0.2-1.9,0.1-2.7,0.1c-0.3,0-1.2,0.2-1.5,0c-0.2-0.1-0.1-0.2-0.3-0.4c-0.2-0.2-0.4-0.3-0.8-0.4c-0.8-0.2-1.4-0.4-2.2-0.5
			c-0.6,0-0.9-0.4-1.4-0.6c-0.9-0.5-1.7-0.9-2.6-1.3c-0.5-0.2-0.9-0.5-1.4-0.6c-1-0.1-2.2,0-3.2,0c-0.4,0-1-0.1-1.3,0
			c-0.2,0.1-0.8,0.6-0.8,0.7c0.4,0,0.8-0.8,1.1-1.1c0.3-0.4,0.4-0.8,0.7-1.1c0.1-0.1,0.3-0.2,0.4-0.4c0.1-0.4,0-0.9,0.1-1.3
			c0.1-0.4,0.1-0.9,0.2-1.3C74.6,64.3,74.7,64.3,74.8,64.3"/>
	</g>
	<g id="XMLID_179_">
		<path id="XMLID_187_" fill="#CCCCCC" d="M74.4,47c0,0-11.2-15.3-25.9-3.3L69.5,0L74.4,47z"/>
		<path id="XMLID_186_" fill="#E2E2E2" d="M62.9,39.4c7,1.5,11.5,7.6,11.5,7.6L70,0.5C67.8,12.1,65.5,27.8,62.9,39.4z"/>
		<path id="XMLID_185_" fill="#CCCCCC" d="M71.6,76.7c0,0-15.1,11.4-25.7-4.3l7.5,47.9L71.6,76.7z"/>
		<path id="XMLID_184_" fill="#E2E2E2" d="M58.4,80.7c7.1,0.6,13.2-4,13.2-4L54,120C55.2,108.2,57.5,92.5,58.4,80.7z"/>
		<path id="XMLID_183_" fill="#B000B5" d="M69.5,47c0-0.8,0.1-1.7-0.2-2.5c-0.2-0.6-0.6-1-0.6-1.6c0-1.1,0.9-2,1.4-2.9
			c0.4-0.7,0.5-1.5,0.6-2.2c0.1-0.5,0.3-1,0.4-1.5c0.3-0.9,0.4-1.8,0.6-2.7c0.3-1,0.7-1.8,0.7-2.8c0-0.9,0-1.8,0-2.8
			c0-0.8,0.7-1.5,0.5-2.2c-0.2-0.8-0.5-2.6-0.5-3.4c-0.4,0.6-1.4,2.5-1.6,3.2c-0.2,0.8-0.6,1.6-0.9,2.5c-0.1,0.4-0.2,1-0.3,1.4
			c-0.2,0.5-0.6,0.8-0.8,1.4c-0.1,0.4-0.1,0.7-0.2,1.1c-0.1,0.5-0.4,1.1-0.5,1.7c-0.1,0.5,0.2,1,0,1.5c-0.1,0.4-0.2,0.4-0.3,0.8
			c0,0.8,0,1.7,0,2.5c0,0.6,0,1.1-0.2,1.6c-0.1,0.3-0.2,0.9-0.3,1.2c-0.3,0.5-1,0.4-1.4,0.9c-0.4,0.5-0.3,1.2-0.6,1.8"/>
		<path id="XMLID_182_" fill="#B000B5" d="M57.5,44c0-0.7,0.1-1.5,0-2.2c-0.2-1-0.7-1.8-0.9-2.8c-0.3-1.4-0.3-2.6-0.3-4
			c0-2.5-0.1-5,0-7.5c0,0.8-0.7,1.2-1,1.8c-0.2,0.4-0.2,0.7-0.3,1c0,0.1-0.2,0.2-0.2,0.4c-0.1,0.3,0.1,0.6,0,0.8
			c-0.1,0.2-1.4-1.5-1.4-1.3c-0.1,0.3-0.1,2.5-0.2,2.8c-0.3,0.6-0.4,1.1-0.6,1.6c-0.4,1.1,1.8,1.9,1.8,3c0.1,0.7,0.2,1.2,0.2,1.9
			c0,0.5,0,1.1,0,1.6c0,0.4,0.1,0.6,0.2,0.9c0.2,0.7,0.1,1.5,0.1,2.2"/>
		<path id="XMLID_181_" fill="#B000B5" d="M67.3,74.8c-0.5,0.1-1.3,1.5-1.5,2c-0.4,0.8-0.4,1.9-0.6,2.8c-0.3,1.3-0.4,2.5-0.4,3.8
			c0,2,0.3,4,0.3,6c0,0.4,0.2,0.6,0.2,0.9c0.1,0.3,0,0.7,0,1.1c0,0.4,0.1,0.8,0,1.2c-0.1,0.4-0.4,0.6-0.5,1
			c-0.1,0.6-0.3,1.1-0.5,1.6c-0.1,0.5-0.2,0.9-0.3,1.4c-0.1,0.4-0.2,0.7-0.4,1c-0.1,0.3-0.4,0.6-0.3,0.8c-0.3-0.2-0.3-0.6-0.4-0.9
			c-0.2-0.5-0.2-1.1-0.2-1.6c-0.1-0.9,0.4-2,0.4-2.9c0-2,0-3.9,0-5.9c0-1.1-0.4-2.2-0.4-3.2c0-1.2-0.5-2.3-0.7-3.4
			c-0.2-1,0.2-2.1-0.3-3c-0.1-0.2-0.3-0.3-0.4-0.5c-0.1-0.2-0.1-0.4-0.3-0.6c-0.2-0.2-0.7-0.8-1-0.9c1.3,0.1,2.6,0,3.9,0
			c0.7,0,2.3,0.4,2.5-0.5"/>
		<path id="XMLID_180_" fill="#B000B5" d="M56,74.8c0,0.6-1,1.3-1.4,1.7c-0.3,0.5-0.7,0.9-1,1.4c-0.4,0.7-0.7,1.7-1,2.5
			c-0.3,1.1-0.6,2.3-0.8,3.3c-0.1,0.3-0.2,0.7-0.3,1c-0.1,0.4,0,0.7-0.1,1.1c-0.2,1-0.3,1.9-0.5,2.9c-0.1,0.6,0,1.2-0.2,1.7
			c-0.1,0.3-0.2,0.5-0.2,0.8c0,0.4-0.1,0.6-0.2,1c-0.1,0.4,0.1,0.8,0,1.1c-0.1,0.3-0.2,0.4-0.3,0.7c0,0.4,0.1,0.8,0,1.2
			c-0.5-0.1-0.6-0.8-0.7-1.2c-0.2-0.6-0.6-1.1-0.8-1.6c-0.2-0.5-0.4-1-0.4-1.4c0-0.2,0.1-0.4,0-0.6c0-0.2-0.2-0.3-0.2-0.4
			c-0.2-0.8-0.1-1.9-0.1-2.7c0-0.3-0.2-1.2,0-1.5c0.1-0.2,0.2-0.1,0.4-0.3c0.2-0.2,0.3-0.4,0.4-0.8c0.2-0.8,0.4-1.4,0.5-2.2
			c0-0.6,0.4-0.9,0.6-1.4c0.5-0.9,0.9-1.7,1.3-2.6c0.2-0.5,0.5-0.9,0.6-1.4c0.1-1,0-2.2,0-3.2c0-0.4,0.1-1,0-1.3
			c-0.1-0.2-0.6-0.8-0.7-0.8c0,0.4,0.8,0.8,1.1,1.1c0.4,0.3,0.8,0.4,1.1,0.7c0.1,0.1,0.2,0.3,0.4,0.4c0.4,0.1,0.9,0,1.3,0.1
			c0.4,0.1,0.9,0.1,1.3,0.2C56,74.6,56,74.7,56,74.8"/>
	</g>
	<g id="XMLID_188_">
		<path id="XMLID_196_" fill="#CCCCCC" d="M79.4,58c0,0,0-19-18.9-18l42.8-22.7L79.4,58z"/>
		<path id="XMLID_195_" fill="#E2E2E2" d="M74.7,45c4.8,5.3,4.8,12.9,4.8,12.9l24-40.1C94.7,26,83.6,37.2,74.7,45z"/>
		<path id="XMLID_194_" fill="#CCCCCC" d="M59.6,80.3c0,0-19,0.2-18.2-18.7l-22.3,43L59.6,80.3z"/>
		<path id="XMLID_193_" fill="#E2E2E2" d="M46.6,75.6c5.4,4.7,13,4.7,13,4.7l-39.8,24.4C27.7,95.9,38.9,84.7,46.6,75.6z"/>
		<path id="XMLID_192_" fill="#B000B5" d="M75.5,55.1c0.5-0.7,1.1-1.3,1.3-2.1c0.2-0.6,0.1-1.1,0.5-1.7c0.7-0.9,1.9-1.1,2.8-1.5
			c0.7-0.3,1.3-0.9,1.8-1.4c0.4-0.4,0.8-0.6,1.2-0.9c0.8-0.6,1.4-1.2,2.1-1.8c0.8-0.6,1.6-1,2.2-1.9c0.5-0.7,1.1-1.5,1.6-2.2
			c0.5-0.7,1.4-0.8,1.7-1.5c0.3-0.8,1.1-2.4,1.6-3.1c-0.6,0.3-2.6,1.2-3.2,1.6c-0.7,0.5-1.5,0.9-2.2,1.5c-0.4,0.3-0.7,0.7-1.1,1
			c-0.5,0.3-1,0.3-1.4,0.7c-0.3,0.2-0.6,0.5-0.8,0.7c-0.4,0.4-1,0.6-1.4,1c-0.3,0.3-0.5,0.9-0.9,1.2c-0.3,0.2-0.4,0.2-0.7,0.5
			c-0.5,0.6-1,1.3-1.5,2c-0.3,0.4-0.6,0.9-1.1,1.2c-0.3,0.2-0.7,0.6-1,0.7c-0.5,0.3-1-0.3-1.6-0.1c-0.6,0.2-1,0.8-1.5,1"/>
		<path id="XMLID_191_" fill="#B000B5" d="M67.6,45.6c0.4-0.6,0.9-1.1,1.3-1.8c0.4-0.9,0.5-1.9,0.9-2.8c0.6-1.3,1.3-2.3,2.1-3.4
			c1.5-2,2.9-4.1,4.4-6c-0.4,0.6-1.3,0.6-1.9,0.9c-0.4,0.2-0.6,0.4-0.9,0.7c-0.1,0.1-0.3,0.1-0.4,0.2c-0.2,0.2-0.3,0.5-0.5,0.7
			c-0.2,0.1-0.2-2-0.4-1.9c-0.2,0.2-1.6,1.9-1.8,2.1c-0.5,0.3-0.9,0.6-1.5,0.9c-1,0.6,0.3,2.6-0.3,3.5c-0.4,0.6-0.5,1.1-0.9,1.7
			c-0.3,0.4-0.6,0.9-0.9,1.3c-0.2,0.3-0.3,0.5-0.4,0.9c-0.2,0.6-0.8,1.2-1.3,1.8"/>
		<path id="XMLID_190_" fill="#B000B5" d="M57.2,76.1c-0.4-0.2-1.9,0.4-2.4,0.7c-0.8,0.4-1.5,1.2-2.1,1.9c-1,0.9-1.8,1.8-2.5,2.8
			c-1.2,1.6-2.1,3.4-3.4,5c-0.2,0.3-0.2,0.5-0.3,0.8c-0.1,0.3-0.4,0.6-0.6,0.9c-0.2,0.3-0.4,0.7-0.7,0.9c-0.3,0.2-0.7,0.3-1,0.6
			c-0.4,0.4-0.9,0.7-1.4,1c-0.4,0.3-0.7,0.6-1,1c-0.3,0.2-0.6,0.4-0.9,0.6c-0.2,0.1-0.6,0.3-0.7,0.5c-0.1-0.3,0.1-0.7,0.2-1
			c0.1-0.6,0.5-0.9,0.8-1.4c0.5-0.8,1.5-1.4,2-2.1c1.2-1.6,2.3-3.1,3.5-4.7c0.6-0.9,1-2,1.6-2.8c0.7-0.9,1-2.1,1.4-3.1
			c0.4-0.9,1.4-1.6,1.6-2.6c0-0.2,0-0.4,0-0.7c0.1-0.2,0.1-0.4,0.1-0.6c0-0.3-0.1-1-0.3-1.3c1,0.8,2.1,1.6,3.2,2.3
			c0.5,0.4,1.6,1.7,2.3,1.1"/>
		<path id="XMLID_189_" fill="#B000B5" d="M48.2,69.5c-0.4,0.5-1.6,0.4-2.1,0.6c-0.5,0.2-1.1,0.3-1.6,0.6c-0.8,0.3-1.6,1-2.3,1.5
			c-0.9,0.7-1.8,1.5-2.6,2.2c-0.3,0.2-0.6,0.5-0.9,0.6c-0.3,0.2-0.4,0.6-0.7,0.8c-0.7,0.7-1.4,1.4-2.1,2c-0.4,0.4-0.7,0.9-1.2,1.3
			c-0.3,0.2-0.4,0.2-0.7,0.5c-0.3,0.3-0.5,0.4-0.8,0.7c-0.3,0.2-0.4,0.7-0.7,0.9c-0.2,0.2-0.4,0.2-0.6,0.4c-0.3,0.3-0.4,0.7-0.8,1
			c-0.3-0.3,0-1,0.1-1.3c0.2-0.6,0.1-1.2,0.3-1.8c0.1-0.5,0.3-1,0.5-1.4c0.1-0.2,0.3-0.3,0.4-0.5c0.1-0.2,0-0.3,0.1-0.5
			c0.3-0.8,1.1-1.5,1.6-2.2c0.2-0.3,0.6-1.1,0.9-1.2c0.2-0.1,0.2,0,0.4,0c0.3,0,0.5-0.2,0.8-0.4c0.7-0.5,1.2-0.9,1.7-1.5
			c0.4-0.4,0.8-0.5,1.3-0.7c0.9-0.4,1.8-0.9,2.6-1.4c0.4-0.2,0.9-0.4,1.3-0.8c0.7-0.8,1.3-1.8,1.9-2.6c0.2-0.3,0.7-0.7,0.8-1.1
			c0-0.2,0-1-0.1-1c-0.2,0.3,0.1,1.2,0.3,1.5c0.1,0.4,0.4,0.8,0.4,1.2c0,0.2,0,0.4,0.1,0.6c0.2,0.3,0.7,0.5,1,0.8
			c0.3,0.3,0.6,0.6,0.9,0.9C48.2,69.3,48.2,69.4,48.2,69.5"/>
	</g>
	<g id="XMLID_197_">
		<path id="XMLID_205_" fill="#CCCCCC" d="M64.3,79.2c0,0,19,0,18-18.9l22.7,42.8L64.3,79.2z"/>
		<path id="XMLID_204_" fill="#E2E2E2" d="M77.2,74.4c-5.3,4.8-12.9,4.8-12.9,4.8l40.1,24C96.3,94.5,85,83.3,77.2,74.4z"/>
		<path id="XMLID_203_" fill="#CCCCCC" d="M42,59.3c0,0-0.2-19,18.7-18.2l-43-22.3L42,59.3z"/>
		<path id="XMLID_202_" fill="#E2E2E2" d="M46.6,46.3c-4.7,5.4-4.7,13-4.7,13L17.5,19.4C26.3,27.4,37.6,38.6,46.6,46.3z"/>
		<path id="XMLID_201_" fill="#B000B5" d="M67.1,75.2c0.7,0.5,1.3,1.1,2.1,1.3c0.6,0.2,1.1,0.1,1.7,0.5c0.9,0.7,1.1,1.9,1.5,2.8
			c0.3,0.7,0.9,1.3,1.4,1.8c0.4,0.4,0.6,0.8,0.9,1.2c0.6,0.8,1.2,1.4,1.8,2.1c0.6,0.8,1,1.6,1.9,2.2c0.7,0.5,1.5,1.1,2.2,1.6
			c0.7,0.5,0.8,1.4,1.5,1.7c0.8,0.3,2.4,1.1,3.1,1.6c-0.3-0.6-1.2-2.6-1.6-3.2c-0.5-0.7-0.9-1.5-1.5-2.2c-0.3-0.4-0.7-0.7-1-1.1
			c-0.3-0.5-0.3-1-0.7-1.4c-0.2-0.3-0.5-0.6-0.7-0.8c-0.4-0.4-0.6-1-1-1.4c-0.3-0.3-0.9-0.5-1.2-0.9c-0.2-0.3-0.2-0.4-0.5-0.7
			c-0.6-0.5-1.3-1-2-1.5c-0.4-0.3-0.9-0.6-1.2-1.1c-0.2-0.3-0.6-0.7-0.7-1c-0.3-0.5,0.3-1,0.1-1.6c-0.2-0.6-0.8-1-1-1.5"/>
		<path id="XMLID_200_" fill="#B000B5" d="M76.7,67.3c0.6,0.4,1.1,0.9,1.8,1.3c0.9,0.4,1.9,0.5,2.8,0.9c1.3,0.6,2.3,1.3,3.4,2.1
			c2,1.5,4.1,2.9,6,4.4c-0.6-0.4-0.6-1.3-0.9-1.9c-0.2-0.4-0.4-0.6-0.7-0.9C89,73.2,89,73,88.9,72.9c-0.2-0.2-0.5-0.3-0.7-0.5
			c-0.1-0.2,2-0.2,1.9-0.4c-0.2-0.2-1.9-1.6-2.1-1.8c-0.3-0.5-0.6-0.9-0.9-1.5c-0.6-1-2.6,0.3-3.5-0.3c-0.6-0.4-1.1-0.5-1.7-0.9
			c-0.4-0.3-0.9-0.6-1.3-0.9c-0.3-0.2-0.5-0.3-0.9-0.4c-0.6-0.2-1.2-0.8-1.8-1.3"/>
		<path id="XMLID_199_" fill="#B000B5" d="M46.1,57c0.2-0.4-0.4-1.9-0.7-2.4c-0.4-0.8-1.2-1.5-1.9-2.1c-0.9-1-1.8-1.8-2.8-2.5
			c-1.6-1.2-3.4-2.1-5-3.4c-0.3-0.2-0.5-0.2-0.8-0.3c-0.3-0.1-0.6-0.4-0.9-0.6c-0.3-0.2-0.7-0.4-0.9-0.7c-0.2-0.3-0.3-0.7-0.6-1
			c-0.4-0.4-0.7-0.9-1-1.4c-0.3-0.4-0.6-0.7-1-1c-0.2-0.3-0.4-0.6-0.6-0.9c-0.1-0.2-0.3-0.6-0.5-0.7c0.3-0.1,0.7,0.1,1,0.2
			c0.6,0.1,0.9,0.5,1.4,0.8c0.8,0.5,1.4,1.5,2.1,2c1.6,1.2,3.1,2.3,4.7,3.5c0.9,0.6,2,1,2.8,1.6c0.9,0.7,2.1,1,3.1,1.4
			c0.9,0.4,1.6,1.4,2.6,1.6c0.2,0,0.4,0,0.7,0c0.2,0.1,0.4,0.1,0.6,0.1c0.3,0,1-0.1,1.3-0.3c-0.8,1-1.6,2.1-2.3,3.2
			c-0.4,0.5-1.7,1.6-1.1,2.3"/>
		<path id="XMLID_198_" fill="#B000B5" d="M52.8,47.9c-0.5-0.4-0.4-1.6-0.6-2.1c-0.2-0.5-0.3-1.1-0.6-1.6c-0.3-0.8-1-1.6-1.5-2.3
			c-0.7-0.9-1.5-1.8-2.2-2.6c-0.2-0.3-0.5-0.6-0.6-0.9c-0.2-0.3-0.6-0.4-0.8-0.7c-0.7-0.7-1.4-1.4-2-2.1c-0.4-0.4-0.9-0.7-1.3-1.2
			C43,34,43,33.9,42.7,33.6c-0.3-0.3-0.4-0.5-0.7-0.8c-0.2-0.3-0.7-0.4-0.9-0.7c-0.2-0.2-0.2-0.4-0.4-0.6c-0.3-0.3-0.7-0.4-1-0.8
			c0.3-0.3,1,0,1.3,0.1c0.6,0.2,1.2,0.1,1.8,0.3c0.5,0.1,1,0.3,1.4,0.5c0.2,0.1,0.3,0.3,0.5,0.4c0.2,0.1,0.3,0,0.5,0.1
			c0.8,0.3,1.5,1.1,2.2,1.6c0.3,0.2,1.1,0.6,1.2,0.9c0.1,0.2,0,0.2,0,0.4c0,0.3,0.2,0.5,0.4,0.8c0.5,0.7,0.9,1.2,1.5,1.7
			c0.4,0.4,0.5,0.8,0.7,1.3c0.4,0.9,0.9,1.8,1.4,2.6c0.2,0.4,0.4,0.9,0.8,1.3c0.8,0.7,1.8,1.3,2.6,1.9c0.3,0.2,0.7,0.7,1.1,0.8
			c0.2,0,1,0,1-0.1c-0.3-0.2-1.2,0.1-1.5,0.3c-0.4,0.1-0.8,0.4-1.2,0.4c-0.2,0-0.4,0-0.6,0.1c-0.3,0.2-0.5,0.7-0.8,1
			c-0.3,0.3-0.6,0.6-0.9,0.9C52.9,48,52.9,47.9,52.8,47.9"/>
	</g>
</g>
</svg>
