<?xml version="1.0" encoding="utf-8"?>
<!-- Generator: Adobe Illustrator 15.1.0, SVG Export Plug-In  -->
<!DOCTYPE svg PUBLIC "-//W3C//DTD SVG 1.1//EN" "http://www.w3.org/Graphics/SVG/1.1/DTD/svg11.dtd" [
	<!ENTITY ns_flows "http://ns.adobe.com/Flows/1.0/">
]>
<svg version="1.1"
	 xmlns="http://www.w3.org/2000/svg" xmlns:xlink="http://www.w3.org/1999/xlink" xmlns:a="http://ns.adobe.com/AdobeSVGViewerExtensions/3.0/"
	 x="0px" y="0px" width="568px" height="133px" viewBox="1.333 188.769 568 133"
	 overflow="visible" enable-background="new 1.333 188.769 568 133" xml:space="preserve">
<defs>
</defs>
<linearGradient id="SVGID_2_" gradientUnits="userSpaceOnUse" x1="285.3325" y1="443.6006" x2="285.3325" y2="191.5285">
	<stop  offset="0" style="stop-color:#FF00FF"/>
	<stop  offset="1" style="stop-color:#000000"/>
</linearGradient>
<rect x="1.333" y="188.769" fill="url(#SVGID_2_)" width="568" height="133.072"/>
<g opacity="0.8">
	<defs>
		<rect id="SVGID_1_" x="1.333" y="188.934" opacity="0.8" width="568" height="131.968"/>
	</defs>
	<clipPath id="SVGID_3_">
		<use xlink:href="#SVGID_1_"  overflow="visible"/>
	</clipPath>
	<g clip-path="url(#SVGID_3_)">
		<line fill="none" stroke="#FF00FF" stroke-miterlimit="10" x1="290.409" y1="0.401" x2="0.333" y2="258.901"/>
		<line fill="none" stroke="#FF00FF" stroke-miterlimit="10" x1="290.409" y1="0.401" x2="1.333" y2="302.068"/>
		<line fill="none" stroke="#FF00FF" stroke-miterlimit="10" x1="290.409" y1="0.401" x2="40.999" y2="320.401"/>
		<line fill="none" stroke="#FF00FF" stroke-miterlimit="10" x1="290.409" y1="0.401" x2="91.666" y2="322.734"/>
		<line fill="none" stroke="#FF00FF" stroke-miterlimit="10" x1="290.409" y1="0.401" x2="140.999" y2="320.901"/>
		<line fill="none" stroke="#FF00FF" stroke-miterlimit="10" x1="290.409" y1="0.401" x2="186.333" y2="320.401"/>
		<line fill="none" stroke="#FF00FF" stroke-miterlimit="10" x1="290.409" y1="0.401" x2="234.999" y2="320.901"/>
		<line fill="none" stroke="#FF00FF" stroke-miterlimit="10" x1="290.409" y1="0.401" x2="288" y2="320.901"/>
		<line fill="none" stroke="#FF00FF" stroke-miterlimit="10" x1="290.409" y1="0.401" x2="1.333" y2="215.259"/>
	</g>
	<g clip-path="url(#SVGID_3_)">
		<line fill="none" stroke="#FF00FF" stroke-miterlimit="10" x1="290.333" y1="0.401" x2="580.409" y2="258.901"/>
		<line fill="none" stroke="#FF00FF" stroke-miterlimit="10" x1="290.333" y1="0.401" x2="579.409" y2="302.068"/>
		<line fill="none" stroke="#FF00FF" stroke-miterlimit="10" x1="290.333" y1="0.401" x2="539.742" y2="320.401"/>
		<line fill="none" stroke="#FF00FF" stroke-miterlimit="10" x1="290.333" y1="0.401" x2="489.075" y2="322.734"/>
		<line fill="none" stroke="#FF00FF" stroke-miterlimit="10" x1="290.333" y1="0.401" x2="439.742" y2="320.901"/>
		<line fill="none" stroke="#FF00FF" stroke-miterlimit="10" x1="290.333" y1="0.401" x2="394.409" y2="320.401"/>
		<line fill="none" stroke="#FF00FF" stroke-miterlimit="10" x1="290.333" y1="0.401" x2="343.742" y2="320.901"/>
		<line fill="none" stroke="#FF00FF" stroke-miterlimit="10" x1="290.333" y1="0.401" x2="568.333" y2="207.361"/>
	</g>
	<g clip-path="url(#SVGID_3_)">
		<line fill="none" stroke="#FF00FF" stroke-miterlimit="10" x1="1.333" y1="226.901" x2="569.333" y2="226.901"/>
		<line fill="none" stroke="#FF00FF" stroke-miterlimit="10" x1="1.333" y1="210.901" x2="569.333" y2="210.901"/>
		<line fill="none" stroke="#FF00FF" stroke-miterlimit="10" x1="1.333" y1="200.901" x2="569.333" y2="200.901"/>
		<line fill="none" stroke="#FF00FF" stroke-miterlimit="10" x1="1.333" y1="194.901" x2="569.333" y2="194.901"/>
		<line fill="none" stroke="#FF00FF" stroke-miterlimit="10" x1="1.333" y1="190.901" x2="569.333" y2="190.901"/>
		<line fill="none" stroke="#FF00FF" stroke-miterlimit="10" x1="1.333" y1="244.901" x2="569.333" y2="244.901"/>
		<line fill="none" stroke="#FF00FF" stroke-miterlimit="10" x1="1.333" y1="269.901" x2="569.333" y2="269.901"/>
		<line fill="none" stroke="#FF00FF" stroke-miterlimit="10" x1="1.333" y1="301.901" x2="569.333" y2="301.901"/>
		<line fill="none" stroke="#FF00FF" stroke-miterlimit="10" x1="1.333" y1="319.901" x2="569.333" y2="319.901"/>
	</g>
</g>
</svg>
