<?xml version="1.0" encoding="utf-8"?>
<!-- Generator: Adobe Illustrator 19.1.0, SVG Export Plug-In . SVG Version: 6.00 Build 0)  -->
<!DOCTYPE svg PUBLIC "-//W3C//DTD SVG 1.1//EN" "http://www.w3.org/Graphics/SVG/1.1/DTD/svg11.dtd">
<svg version="1.1" id="Layer_1" xmlns="http://www.w3.org/2000/svg" xmlns:xlink="http://www.w3.org/1999/xlink" x="0px" y="0px"
	 viewBox="0 0 261 187" enable-background="new 0 0 261 187" xml:space="preserve">
<g>
	<polygon fill="#36FF00" points="165.8,108.2 160.9,117.7 101.9,117.4 98.3,108.8 	"/>
	<rect x="82.6" y="95.6" width="6" height="19.7"/>
	<rect x="174.6" y="95.6" width="6" height="19.7"/>
	<rect x="96.7" y="91.6" width="12.6" height="19.7"/>
	<rect x="152.3" y="91.6" width="13.5" height="19.7"/>
	<polygon points="42.6,114.7 71.1,125 89.3,69.6 102.4,91.4 111.4,147.2 127.9,187 132.3,187 150.8,147.4 161,89.3 174.4,68.2 
		190.3,122.3 215.6,111.3 261,35.9 261,20.3 191.3,36.4 161.8,8.9 102.4,8.9 70.6,37.4 0,18.9 0,33.9 	"/>
	<g>
		<polygon fill="#B9FFCB" points="115.4,92.5 115.3,93 115.3,134.4 122.8,160 139.8,160 148.3,132.9 148.3,93 148.1,92.5 		"/>
		<polygon fill="#39FF6D" points="115.3,134.4 148.3,132.9 148.3,93 		"/>
		<polygon fill="#79FF9C" points="115.3,93 148.3,93 115.3,134.4 		"/>
	</g>
	<polygon fill="#353535" points="127.9,187 122.8,160 115.3,134.4 115.3,93 102.3,9.6 89.3,69.6 103.1,93 111.4,147.2 	"/>
	<polygon fill="#2D2D2D" points="132,187 140.1,160 147.6,134.4 147.6,93 163.6,10.6 173.6,69.6 159.8,93 151.4,147.2 	"/>
	<polygon fill="#282828" points="190.3,122.3 212.5,68.9 191.3,36.4 	"/>
	<polygon fill="#282828" points="71.2,124.3 49,70.9 70.2,38.4 	"/>
	<polygon fill="#2D2D2D" points="133.2,151.5 148.1,142.1 141.4,151.5 	"/>
	<polygon fill="#2D2D2D" points="129,151.5 114.2,142.1 120.8,151.5 	"/>
	<polygon points="147.6,92 132.9,110.9 115.3,92 	"/>
	<polygon fill="#1E1E1E" points="159.8,93 185.1,102.8 174.4,68.2 	"/>
	<polygon fill="#1E1E1E" points="103.9,93 78.6,102.8 89.3,68.2 	"/>
	<polygon fill="#39FF6D" points="147.6,63 148.1,52.8 133.2,42.2 116.1,52.6 116.1,62.5 132,52.6 	"/>
	<polygon fill="#39FF6D" points="147.6,46.8 148.1,36.7 133.2,26 116.1,36.4 116.1,46.4 132,36.4 	"/>
	<polygon fill="#36FF00" points="102.3,9.6 106.6,0 158.6,0.4 161.8,8.9 	"/>
</g>
</svg>
