<?xml version="1.0" encoding="utf-8"?>
<!-- Generator: Adobe Illustrator 19.1.0, SVG Export Plug-In . SVG Version: 6.00 Build 0)  -->
<!DOCTYPE svg PUBLIC "-//W3C//DTD SVG 1.1//EN" "http://www.w3.org/Graphics/SVG/1.1/DTD/svg11.dtd">
<svg version="1.1" id="Layer_1" xmlns="http://www.w3.org/2000/svg" xmlns:xlink="http://www.w3.org/1999/xlink" x="0px" y="0px"
	 viewBox="0 0 69.4 80" enable-background="new 0 0 69.4 80" xml:space="preserve">
<path fill="none" stroke="#56FF66" stroke-width="5" stroke-miterlimit="10" d="M47.2,4.2c0,0-8.1,8.1-22.8,0"/>
<polygon points="10.5,54.6 18,31.9 23.4,40.9 27.1,63.7 33.8,80 35.6,80 43.2,63.8 47.4,40 52.9,31.3 59.4,53.5 69.4,62.6 
	68.5,31.6 59.8,18.3 47.7,7 23.4,7 10.3,18.7 1.1,32.6 0,63.4 "/>
<g>
	<polygon fill="#B9FFCB" points="28.7,41.3 28.6,41.5 28.6,58.5 31.7,69 38.7,69 42.2,57.9 42.2,41.5 42.1,41.3 	"/>
	<polygon fill="#39FF6D" points="28.6,58.5 42.2,57.9 42.2,41.5 	"/>
	<polygon fill="#79FF9C" points="28.6,41.5 42.2,41.5 28.6,58.5 	"/>
</g>
<polygon fill="#353535" points="33.8,80 31.7,69 28.6,58.5 28.6,41.5 23.3,7.3 18,31.9 23.6,41.5 27.1,63.7 "/>
<polygon fill="#2D2D2D" points="35.5,80 38.8,69 41.9,58.5 41.9,41.5 48.5,7.7 52.6,31.9 46.9,41.5 43.5,63.7 "/>
<polygon fill="#282828" points="59.4,53.5 68.5,31.6 59.8,18.3 "/>
<polygon fill="#282828" points="10.6,54.3 1.5,32.4 10.1,19.1 "/>
<polygon fill="#2D2D2D" points="35.9,65.9 40.1,63.2 38.2,65.9 "/>
<polygon fill="#2D2D2D" points="35,65.9 30.8,63.2 32.7,65.9 "/>
</svg>
