<svg version="1.1" id="Layer_1" xmlns="http://www.w3.org/2000/svg" xmlns:xlink="http://www.w3.org/1999/xlink" x="0px" y="0px"
	 viewBox="0 0 199.9 213.8" enable-background="new 0 0 199.9 213.8" xml:space="preserve">

  <!-- FIRE -->
  <polygon fill="#FFA327" class="aux" points="147.8,167.2 148.6,194.4 141.3,176.9 144.7,213.6 137.2,184.5 135.7,211.6 131,181.7 128.9,196 126.1,169.2 		"/>
  <polygon fill="#FFA327" class="aux" points="52.1,167.4 51.3,194.6 58.6,177 55.2,213.8 62.7,184.7 64.2,211.8 68.9,181.8 71,196.2 73.9,169.3 		"/>
  <polygon fill="#FFC229" class="aux" points="145.2,165.4 144.1,192.5 141,174.1 140.7,211 138.2,181.2 135.8,207.8 134.8,177.6 132.8,191.5 132.8,164.5 		"/>
  <polygon fill="#FFC229" class="aux" points="54.7,165.6 55.8,192.7 58.9,174.3 59.2,211.2 61.7,181.3 64.1,208 65.1,177.7 67.1,191.7 67.2,164.7 		"/>
  <polygon fill="#FFDB27" class="aux" points="123.9,171.2 127.7,192 133.4,177.8 135.7,206.2 139.7,183.2 146.1,203.7 146.6,180.4 151.7,191.1 150.4,170.3 		"/>
  <polygon fill="#FFDB27" class="aux" points="76,171.4 72.2,192.2 66.5,178 64.2,206.4 60.2,183.4 53.8,203.9 53.3,180.5 48.3,191.3 49.5,170.4 		"/>

  <!-- SHIP -->
	<polygon fill="#0074FF" class="primary"   points="153.1,120.9 153.1,120.9 130.9,103.8 130.9,83.9 129.1,83.9 127.6,83.9 125.7,83.9 125.7,99.8 124.2,98.6 114.8,32.6 114.7,32.6 114.7,32.6 114.8,32.6 105.3,0 96.5,0 83.5,34 76.1,98.3 75.1,99 75.1,83.9 73.2,83.9 71.7,83.9 69.9,83.9 69.9,103.1 46.8,120.9 0,156.4 0,175.6 42.7,167.6 73.5,161.7 74,161.9 74.1,169.6 74.4,168.9 74.4,171.5 74.4,172.9 74.9,171.5 125.2,171.5 125.6,172.9 125.6,161.2 126.4,161.7 199.9,175.6 199.9,156.4 	"/>
	<polygon fill="#FEFF34" class="secondary" points="93.5,7.4 83.5,34 83.5,71.7 95.4,102.5 104.3,102.5 114.8,71.7 114.8,32.6 107.7,7.4 	"/> 
  <polygon fill="#F90000" class="tertiary"  points="57.4,156.4 49.8,152.9 49.8,169.6 49.8,171.5 49.8,172.5 57.4,174.1 57.4,174.4 66.8,174.4 76.3,172.5 76.3,171.5 76.3,169.6 76.3,152.6 66.8,156.4 			"/>
  <polygon fill="#F90000" class="tertiary"  points="71.5,113.9 71.6,113.8 71.5,113.8 71.2,113.3 60.5,112.9 49.8,122.8 49.8,143.1 51.5,145.5 57.4,147.2 66.8,147.2 76.3,143.5 76.3,122.8 			"/>
  <polygon fill="#FF1111" class="tertiary"  points="133.1,155.4 123.6,151.7 123.6,168.7 123.6,170.6 123.6,171.5 133.1,173.4 142.5,173.4 142.5,173.2 150.1,171.5 150.1,170.6 150.1,168.7 150.1,152 142.5,155.4 			"/>
  <polygon fill="#FF1111" class="tertiary"  points="139.4,111.9 128.6,112.4 128.4,112.9 128.3,112.9 128.4,113 123.6,121.9 123.6,142.5 133.1,146.2 142.5,146.2 148.4,144.6 150.1,142.2 150.1,121.9 			"/>
</svg>
