<?xml version="1.0" encoding="utf-8"?>
<!-- Generator: Adobe Illustrator 19.1.0, SVG Export Plug-In . SVG Version: 6.00 Build 0)  -->
<!DOCTYPE svg PUBLIC "-//W3C//DTD SVG 1.1//EN" "http://www.w3.org/Graphics/SVG/1.1/DTD/svg11.dtd">
<svg version="1.1" id="Layer_1" xmlns="http://www.w3.org/2000/svg" xmlns:xlink="http://www.w3.org/1999/xlink" x="0px" y="0px"
	 viewBox="0 0 199.9 213.8" enable-background="new 0 0 199.9 213.8" xml:space="preserve">
<g display="none">
	<polygon display="inline" fill="#0074FF" points="153.1,120.9 153.1,120.9 130.9,103.8 130.9,83.9 129.1,83.9 127.6,83.9 
		125.7,83.9 125.7,99.8 124.2,98.6 114.8,32.6 114.7,32.6 114.7,32.6 114.8,32.6 105.3,0 96.5,0 83.5,34 76.1,98.3 75.1,99 
		75.1,83.9 73.2,83.9 71.7,83.9 69.9,83.9 69.9,103.1 46.8,120.9 0,156.4 0,175.6 42.7,167.6 73.5,161.7 74,161.9 74.1,169.6 
		74.4,168.9 74.4,171.5 74.4,172.9 74.9,171.5 125.2,171.5 125.6,172.9 125.6,161.2 126.4,161.7 199.9,175.6 199.9,156.4 	"/>
	<polygon display="inline" fill="#FEFF34" points="93.5,7.4 83.5,34 83.5,71.7 95.4,102.5 104.3,102.5 114.8,71.7 114.8,32.6 
		107.7,7.4 	"/>
	<g display="inline">
		<polygon fill="#FFDB27" points="76,171.4 72.2,192.2 66.5,178 64.2,206.4 60.2,183.4 53.8,203.9 53.3,180.5 48.3,191.3 
			49.5,170.4 		"/>
		<polygon fill="#FFA327" points="52.1,167.4 51.3,194.6 58.6,177 55.2,213.8 62.7,184.7 64.2,211.8 68.9,181.8 71,196.2 
			73.9,169.3 		"/>
		<polygon fill="#FFC229" points="54.7,165.6 55.8,192.7 58.9,174.3 59.2,211.2 61.7,181.3 64.1,208 65.1,177.7 67.1,191.7 
			67.2,164.7 		"/>
		<g>
			<polygon fill="#F90000" points="57.4,156.4 49.8,152.9 49.8,169.6 49.8,171.5 49.8,172.5 57.4,174.1 57.4,174.4 66.8,174.4 
				76.3,172.5 76.3,171.5 76.3,169.6 76.3,152.6 66.8,156.4 			"/>
			<polygon fill="#F90000" points="71.5,113.9 71.6,113.8 71.5,113.8 71.2,113.3 60.5,112.9 49.8,122.8 49.8,143.1 51.5,145.5 
				57.4,147.2 66.8,147.2 76.3,143.5 76.3,122.8 			"/>
		</g>
	</g>
	<g display="inline">
		<polygon fill="#FFDB27" points="123.9,171.2 127.7,192 133.4,177.8 135.7,206.2 139.7,183.2 146.1,203.7 146.6,180.4 151.7,191.1 
			150.4,170.3 		"/>
		<polygon fill="#FFA327" points="147.8,167.2 148.6,194.4 141.3,176.9 144.7,213.6 137.2,184.5 135.7,211.6 131,181.7 128.9,196 
			126.1,169.2 		"/>
		<polygon fill="#FFC229" points="145.2,165.4 144.1,192.5 141,174.1 140.7,211 138.2,181.2 135.8,207.8 134.8,177.6 132.8,191.5 
			132.8,164.5 		"/>
		<g>
			<polygon fill="#FF1111" points="133.1,155.4 123.6,151.7 123.6,168.7 123.6,170.6 123.6,171.5 133.1,173.4 142.5,173.4 
				142.5,173.2 150.1,171.5 150.1,170.6 150.1,168.7 150.1,152 142.5,155.4 			"/>
			<polygon fill="#FF1111" points="139.4,111.9 128.6,112.4 128.4,112.9 128.3,112.9 128.4,113 123.6,121.9 123.6,142.5 
				133.1,146.2 142.5,146.2 148.4,144.6 150.1,142.2 150.1,121.9 			"/>
		</g>
	</g>
</g>
<g>
	<polygon fill="#626262" points="97.1,0 106.6,0 110.4,17.1 90.4,17.1 	"/>
	<g>
		<rect x="72.3" y="83.9" fill="#414141" width="3.4" height="26.7"/>
		<rect x="70.5" y="83.9" fill="#5A5A5A" width="3.4" height="26.7"/>
	</g>
	<g>
		<rect x="126.3" y="83.9" fill="#414141" width="3.4" height="26.7"/>
		<rect x="128.1" y="83.9" fill="#5A5A5A" width="3.4" height="26.7"/>
	</g>
	<g>
		<g>
			<polygon fill="#787878" points="76.6,98.8 0.6,156.4 0.6,175.6 74,161.7 			"/>
			<polygon fill="#686868" points="76.9,98.1 47.4,120.9 43.3,167.6 74,161.7 75,112.9 			"/>
			<polygon fill="#404040" points="70.6,158 65.1,114.8 76.9,98.1 75,116.3 74,161.7 			"/>
		</g>
		<g>
			<polygon fill="#787878" points="124.4,98.8 200.5,156.4 200.5,175.6 127,161.7 			"/>
			<polygon fill="#686868" points="124.2,98.1 153.7,120.9 157.8,167.6 127,161.7 126.1,112.9 			"/>
			<polygon fill="#404040" points="130.5,158 136,114.8 124.2,98.1 126.1,116.3 127,161.7 			"/>
		</g>
		<polygon fill="#626262" points="84.1,34 75,112.9 75,171.5 126.1,171.5 126.1,107.7 115.3,32.6 		"/>
		<polygon fill="#5B5B5B" points="95.2,107.7 75,112.9 84.1,34 95.2,61.8 96.7,107.7 		"/>
		<polygon fill="#5B5B5B" points="106,107.7 126.2,112.9 115.2,32.1 106,61.8 104.5,107.7 		"/>
		<polygon fill="#575757" points="96.7,107.7 75,172.9 75,112.9 		"/>
		<polygon fill="#575757" points="104.5,107.7 126.2,172.9 126.2,118.3 126.2,112.9 		"/>
		<polygon fill="#4A4A4A" points="115.2,140.1 122.6,162.1 126.1,169.6 126.2,120.5 125.9,113.3 		"/>
		<polygon fill="#4A4A4A" points="85.5,140.1 78.1,162.1 74.6,169.6 74.5,120.5 74.8,113.3 		"/>
		<polygon fill="#BDBDBD" points="94,7.4 84.1,34 84.1,71.7 95.9,102.5 104.9,102.5 115.3,71.7 115.3,32.6 108.2,7.4 		"/>
		<polygon fill="#CECECE" points="115.3,32.6 84.1,34 84.1,71.7 		"/>
		<polygon fill="#B0B0B0" points="115.3,71.7 84.1,71.7 115.3,32.6 		"/>
		<g>
			<g>
				<polygon fill="#BDBDBD" points="76.9,122.8 76.9,171.5 50.4,171.5 50.4,122.8 61.1,112.9 71.8,113.3 				"/>
				<polygon fill="#929292" points="67.4,171.5 67.4,126.6 76.9,122.8 76.9,169.6 				"/>
				<polygon fill="#949494" points="71.8,113.3 67.4,126.6 76.9,122.8 				"/>
				<polygon fill="#C3C3C3" points="50.4,122.8 58,126.6 58,171.5 50.4,169.6 				"/>
				<rect x="58" y="171.5" fill="#CBCBCB" width="9.5" height="2.8"/>
				<polygon fill="#ABABAB" points="58.9,174.4 50.4,172.5 50.4,169.6 58.9,171.5 				"/>
				<polygon fill="#767676" points="76.9,172.5 67.4,174.4 67.4,171.5 76.9,169.6 				"/>
				<polygon fill="#ABABAB" points="61.1,112.9 58,126.6 50.4,122.8 				"/>
				<polyline fill="#626262" points="50.4,143.1 52.1,145.5 58,147.2 67.4,147.2 76.9,143.5 76.9,152.6 67.4,156.4 58,156.4 
					50.4,152.9 				"/>
			</g>
			<polygon fill="#D1D1D1" points="67.4,126.6 58,126.6 61.1,112.9 72.1,113.8 			"/>
		</g>
		<g>
			<g>
				<polygon fill="#BDBDBD" points="124.2,121.9 124.2,170.6 150.7,170.6 150.7,121.9 139.9,111.9 129.2,112.4 				"/>
				<polygon fill="#929292" points="133.6,170.6 133.6,125.6 124.2,121.9 124.2,168.7 				"/>
				<polygon fill="#949494" points="129.2,112.4 133.6,125.6 124.2,121.9 				"/>
				<polygon fill="#C3C3C3" points="150.7,121.9 143.1,125.6 143.1,170.6 150.7,168.7 				"/>
				<rect x="133.6" y="170.6" fill="#CBCBCB" width="9.5" height="2.8"/>
				<polygon fill="#ABABAB" points="142.1,173.4 150.7,171.5 150.7,168.7 142.1,170.6 				"/>
				<polygon fill="#767676" points="124.2,171.5 133.6,173.4 133.6,170.6 124.2,168.7 				"/>
				<polygon fill="#ABABAB" points="139.9,111.9 143.1,125.6 150.7,121.9 				"/>
				<polyline fill="#626262" points="150.7,142.2 148.9,144.6 143.1,146.2 133.6,146.2 124.2,142.5 124.2,151.7 133.6,155.4 
					143.1,155.4 150.7,152 				"/>
			</g>
			<polygon fill="#D1D1D1" points="133.6,125.6 143.1,125.6 139.9,111.9 128.9,112.9 			"/>
		</g>
		<g>
			<g>
				<polygon fill="#626262" points="107.5,134.5 107.5,132.6 92.3,132.6 92.3,134.5 90.4,134.5 90.4,138.5 109.4,138.5 109.4,134.5 
									"/>
				<rect x="92.3" y="161.2" fill="#626262" width="1.9" height="1.9"/>
				<rect x="105.6" y="161.2" fill="#626262" width="1.9" height="1.9"/>
			</g>
			<g>
				<polygon fill="#383838" points="105.6,138.3 105.6,132.6 94.2,132.6 94.2,138.3 88.4,138.3 88.4,142.8 111.4,142.8 111.4,138.3 
									"/>
				<rect x="96.1" y="161.2" fill="#383838" width="7.6" height="1.9"/>
				<rect x="107.5" y="160.8" fill="#383838" width="1.9" height="2.4"/>
				<rect x="90.4" y="160.6" fill="#383838" width="1.9" height="2.6"/>
			</g>
			<g>
				<polygon fill="#1A1A1A" points="109.4,136.4 107.5,136.4 107.5,134.5 103.8,134.5 103.8,132.6 96.1,132.6 96.1,134.5 
					92.3,134.5 92.3,136.4 90.4,136.4 90.4,139.4 109.4,139.4 				"/>
				<rect x="88.4" y="140.2" fill="#1A1A1A" width="23.1" height="4.2"/>
			</g>
			<rect x="88.4" y="161" fill="#151515" width="2.1" height="2.2"/>
			<rect x="109.4" y="161.2" fill="#151515" width="2" height="1.9"/>
			<g>
				<polygon points="109.4,142.1 109.4,138.3 107.5,138.3 107.5,136.4 105.6,136.4 105.6,134.5 101.9,134.5 101.9,132.6 98,132.6 
					98,134.5 94.2,134.5 94.2,136.4 92.3,136.4 92.3,138.3 90.4,138.3 90.4,142.1 88.4,142.1 88.4,161.2 98,161.2 98,163.2 
					101.9,163.2 101.9,161.2 111.4,161.2 111.4,142.1 				"/>
				<g>
					<rect x="92.3" y="140.2" fill="#626262" width="1.9" height="1.9"/>
					<rect x="92.3" y="144" fill="#626262" width="1.9" height="1.9"/>
					<rect x="96.1" y="140.2" fill="#626262" width="1.9" height="1.9"/>
					<rect x="96.1" y="144" fill="#626262" width="1.9" height="1.9"/>
					<rect x="94.2" y="142.1" fill="#626262" width="1.9" height="1.9"/>
				</g>
				<g>
					<rect x="101.9" y="140.2" fill="#626262" width="1.9" height="1.9"/>
					<rect x="101.9" y="144" fill="#626262" width="1.9" height="1.9"/>
					<rect x="105.6" y="140.2" fill="#626262" width="1.9" height="1.9"/>
					<rect x="105.6" y="144" fill="#626262" width="1.9" height="1.9"/>
					<rect x="103.8" y="142.1" fill="#626262" width="1.9" height="1.9"/>
				</g>
			</g>
		</g>
	</g>
</g>
</svg>
